<?xml version="1.0" standalone="no"?><!DOCTYPE svg PUBLIC "-//W3C//DTD SVG 1.1//EN" "http://www.w3.org/Graphics/SVG/1.1/DTD/svg11.dtd"><svg t="1645406376151" class="icon" viewBox="0 0 1024 1024" version="1.1" xmlns="http://www.w3.org/2000/svg" p-id="1629" xmlns:xlink="http://www.w3.org/1999/xlink" width="200" height="200"><defs><style type="text/css"></style></defs><path d="M800.7424 127.0016H223.2576c-26.5728 0-48.128 21.5424-48.128 48.1408v625.5744c0 26.5728 21.5424 48.128 48.128 48.128h409.0496l216.5504-216.5504V175.1552c0-26.6112-21.5424-48.1536-48.1152-48.1536z" fill="#CCCCCC" p-id="1630"></path><path d="M776.6784 175.1552H247.3216c-13.2992 0-24.064 10.7648-24.064 24.0384v577.472c0 13.2992 10.7648 24.064 24.064 24.064h360.9216l192.4864-192.4864V199.1936c0.0128-13.2864-10.7776-24.0384-24.0512-24.0384z" fill="#FFFFFF" p-id="1631"></path><path d="M680.4352 632.2944c-26.5728 0-48.128 21.5424-48.128 48.128v168.4352l216.5504-216.5504H680.4352z" fill="#999999" p-id="1632"></path><path d="M680.4352 463.8848H343.5648c-13.2992 0-24.064 10.7648-24.064 24.0384 0 13.2992 10.7648 24.064 24.064 24.064h336.8576c13.2736 0 24.064-10.7648 24.064-24.064 0-13.2736-10.7776-24.0384-24.0512-24.0384zM343.5648 415.744H536.064c13.2736 0 24.064-10.7648 24.064-24.064 0-13.2736-10.7904-24.064-24.064-24.064H343.5648c-13.2992 0-24.064 10.7904-24.064 24.064 0.0128 13.2992 10.7648 24.064 24.064 24.064z m0-96.2432h336.8576c13.2736 0 24.064-10.7648 24.064-24.0384 0-13.2992-10.7904-24.0896-24.064-24.0896H343.5648c-13.2992 0-24.064 10.7904-24.064 24.0896 0.0128 13.2736 10.7648 24.0384 24.064 24.0384z" fill="#CCCCCC" p-id="1633"></path><path d="M367.6288 728.5632v168.4352l48.128-48.128 48.1152 48.128V728.5632z" fill="#ED7161" p-id="1634"></path><path d="M415.7568 656.384m-96.2432 0a96.2432 96.2432 0 1 0 192.4864 0 96.2432 96.2432 0 1 0-192.4864 0Z" fill="#FFD073" p-id="1635"></path></svg>