<?xml version="1.0" standalone="no"?><!DOCTYPE svg PUBLIC "-//W3C//DTD SVG 1.1//EN" "http://www.w3.org/Graphics/SVG/1.1/DTD/svg11.dtd"><svg t="1645171863361" class="icon" viewBox="0 0 1024 1024" version="1.1" xmlns="http://www.w3.org/2000/svg" p-id="855" xmlns:xlink="http://www.w3.org/1999/xlink" width="200" height="200"><defs><style type="text/css"></style></defs><path d="M916.928 199.488C946.048 117.664 907.136 0 907.136 0s-36.832 54.912-90.56 101.12C731.36 37.888 626.24 0 512 0 390.624 0 279.264 42.464 191.488 113.024 129.984 64.96 86.432 0 86.432 0s-48.032 144.448 1.92 224.512C32.64 306.464 0 405.408 0 512c0 282.752 229.248 512 512 512s512-229.248 512-512c0-117.824-40.192-225.984-107.072-312.512z" fill="#F15642" p-id="856"></path><path d="M840.512 119.488C915.008 208.416 960 322.912 960 448c0 282.752-229.248 512-512 512-125.088 0-239.584-44.992-328.512-119.488C213.408 952.64 354.304 1024 512 1024c282.752 0 512-229.248 512-512 0-157.696-71.36-298.592-183.488-392.512z" fill="#DA4E3C" p-id="857"></path><path d="M399.968 496c-9.152 0-18.4-2.624-26.592-8.064l-96-64c-22.048-14.688-28-44.512-13.312-66.56s44.48-28.032 66.56-13.312l96 64c22.048 14.688 28 44.512 13.312 66.56-9.248 13.888-24.48 21.376-39.968 21.376z" fill="#B33B32" p-id="858"></path><path d="M264.064 405.376c14.688-22.048 44.48-28.032 66.56-13.312l96 64c6.336 4.224 11.168 9.76 14.72 15.904 12.608-21.76 6.496-49.76-14.72-63.904l-96-64c-22.08-14.72-51.872-8.736-66.56 13.312-10.496 15.744-10.304 35.328-1.408 50.656 0.512-0.864 0.832-1.792 1.408-2.656z" fill="#8F3028" p-id="859"></path><path d="M624.064 496c-15.52 0-30.752-7.488-40-21.376-14.688-22.048-8.736-51.872 13.312-66.56l96-64c22.048-14.72 51.872-8.736 66.56 13.312s8.736 51.872-13.312 66.56l-96 64a47.92 47.92 0 0 1-26.56 8.064z" fill="#B33B32" p-id="860"></path><path d="M759.936 405.376c-14.688-22.048-44.48-28.032-66.56-13.312l-96 64c-6.304 4.224-11.168 9.76-14.72 15.904-12.608-21.76-6.464-49.76 14.72-63.904l96-64c22.08-14.72 51.872-8.736 66.56 13.312 10.496 15.744 10.304 35.328 1.408 50.656-0.512-0.864-0.832-1.792-1.408-2.656z" fill="#8F3028" p-id="861"></path><path d="M816 528m-48 0a48 48 0 1 0 96 0 48 48 0 1 0-96 0Z" fill="#DA4E3C" p-id="862"></path><path d="M208 528m-48 0a48 48 0 1 0 96 0 48 48 0 1 0-96 0Z" fill="#DA4E3C" p-id="863"></path><path d="M686.56 608H337.44c-9.632 0-17.44 7.168-17.44 16 0 97.056 86.112 176 192 176s192-78.944 192-176c0-8.832-7.808-16-17.44-16z" fill="#B33B32" p-id="864"></path><path d="M702.72 640c0.576-5.312 1.28-10.56 1.28-16 0-8.832-7.808-16-17.44-16H337.44c-9.632 0-17.44 7.168-17.44 16 0 5.44 0.704 10.688 1.28 16h381.44z" fill="#8F3028" p-id="865"></path></svg>